<svg height="512" viewBox="0 0 512 512" width="512" xmlns="http://www.w3.org/2000/svg"><g><path d="m496 488h-8v-336a8 8 0 0 0 -8-8h-112v-80a8 8 0 0 0 -8-8h-16v-40a8 8 0 0 0 -8-8h-160a8 8 0 0 0 -8 8v40h-16a8 8 0 0 0 -8 8v80h-112a8 8 0 0 0 -8 8v336h-8a8 8 0 0 0 0 16h480a8 8 0 0 0 0-16zm-352 0h-104v-328h104zm40-464h144v32h-144zm144 464h-144v-8h144zm-128-24v-104h48v104zm64 0v-104h48v104zm88 24h-8v-16a8 8 0 0 0 -8-8h-8v-112a8 8 0 0 0 -8-8h-128a8 8 0 0 0 -8 8v112h-8a8 8 0 0 0 -8 8v16h-8v-416h192zm120 0h-104v-328h104z"/><path d="m232 400a8 8 0 0 0 -8 8v16a8 8 0 0 0 16 0v-16a8 8 0 0 0 -8-8z"/><path d="m280 400a8 8 0 0 0 -8 8v16a8 8 0 0 0 16 0v-16a8 8 0 0 0 -8-8z"/><path d="m192 336h128a8 8 0 0 0 8-8v-64a8 8 0 0 0 -8-8h-128a8 8 0 0 0 -8 8v64a8 8 0 0 0 8 8zm8-16v-8h112v8zm112-48v24h-112v-24z"/><path d="m192 248h128a8 8 0 0 0 8-8v-64a8 8 0 0 0 -8-8h-128a8 8 0 0 0 -8 8v64a8 8 0 0 0 8 8zm8-16v-8h112v8zm112-48v24h-112v-24z"/><path d="m192 160h128a8 8 0 0 0 8-8v-64a8 8 0 0 0 -8-8h-128a8 8 0 0 0 -8 8v64a8 8 0 0 0 8 8zm8-16v-8h112v8zm112-48v24h-112v-24z"/><path d="m128 168h-72a8 8 0 0 0 -8 8v64a8 8 0 0 0 8 8h72a8 8 0 0 0 8-8v-64a8 8 0 0 0 -8-8zm-8 16v24h-56v-24zm-56 48v-8h56v8z"/><path d="m128 256h-72a8 8 0 0 0 -8 8v64a8 8 0 0 0 8 8h72a8 8 0 0 0 8-8v-64a8 8 0 0 0 -8-8zm-8 16v24h-56v-24zm-56 48v-8h56v8z"/><path d="m128 344h-72a8 8 0 0 0 -8 8v64a8 8 0 0 0 8 8h72a8 8 0 0 0 8-8v-64a8 8 0 0 0 -8-8zm-8 16v24h-56v-24zm-56 48v-8h56v8z"/><path d="m456 168h-72a8 8 0 0 0 -8 8v64a8 8 0 0 0 8 8h72a8 8 0 0 0 8-8v-64a8 8 0 0 0 -8-8zm-8 16v24h-56v-24zm-56 48v-8h56v8z"/><path d="m456 256h-72a8 8 0 0 0 -8 8v64a8 8 0 0 0 8 8h72a8 8 0 0 0 8-8v-64a8 8 0 0 0 -8-8zm-8 16v24h-56v-24zm-56 48v-8h56v8z"/><path d="m456 344h-72a8 8 0 0 0 -8 8v64a8 8 0 0 0 8 8h72a8 8 0 0 0 8-8v-64a8 8 0 0 0 -8-8zm-8 16v24h-56v-24zm-56 48v-8h56v8z"/></g></svg>