<svg height="512" viewBox="0 0 512 512" width="512" xmlns="http://www.w3.org/2000/svg"><g><g fill="#57a4ff"><rect height="80" rx="8" width="144" x="184" y="80"/><rect height="80" rx="8" width="144" x="184" y="168"/><rect height="80" rx="8" width="144" x="184" y="256"/><path d="m152 64v432h208v-432zm200 424h-8v-16a8 8 0 0 0 -8-8h-8v-112a8 8 0 0 0 -8-8h-128a8 8 0 0 0 -8 8v112h-8a8 8 0 0 0 -8 8v16h-8v-416h192z"/><rect height="80" rx="8" width="88" x="48" y="168"/><rect height="80" rx="8" width="88" x="48" y="256"/><rect height="80" rx="8" width="88" x="48" y="344"/><path d="m32 152v344h120v-344zm112 336h-104v-328h104z"/><rect height="80" rx="8" width="88" x="376" y="168"/><rect height="80" rx="8" width="88" x="376" y="256"/><rect height="80" rx="8" width="88" x="376" y="344"/><path d="m360 152v344h120v-344zm112 336h-104v-328h104z"/><path d="m192 352h128v120h-128z"/><path d="m192 264h128v40h-128z"/><path d="m192 304h128v24h-128z"/><path d="m192 176h128v40h-128z"/><path d="m192 216h128v24h-128z"/><path d="m192 88h128v40h-128z"/><path d="m192 128h128v24h-128z"/><path d="m56 176h72v40h-72z"/><path d="m56 216h72v24h-72z"/><path d="m56 264h72v40h-72z"/><path d="m56 304h72v24h-72z"/><path d="m56 352h72v40h-72z"/><path d="m56 392h72v24h-72z"/><path d="m176 472h160v24h-160z"/><path d="m176 16h160v48h-160z"/><path d="m384 176h72v40h-72z"/><path d="m384 216h72v24h-72z"/><path d="m384 264h72v40h-72z"/><path d="m384 304h72v24h-72z"/><path d="m384 352h72v40h-72z"/><path d="m384 392h72v24h-72z"/></g><g fill="#004fac"><path d="m496 488h-8v-336a8 8 0 0 0 -8-8h-112v-80a8 8 0 0 0 -8-8h-16v-40a8 8 0 0 0 -8-8h-160a8 8 0 0 0 -8 8v40h-16a8 8 0 0 0 -8 8v80h-112a8 8 0 0 0 -8 8v336h-8a8 8 0 0 0 0 16h480a8 8 0 0 0 0-16zm-24 0h-104v-328h104zm-272-24v-104h48v104zm112 0h-48v-104h48zm16 24h-144v-8h144zm24 0h-8v-16a8 8 0 0 0 -8-8h-8v-112a8 8 0 0 0 -8-8h-128a8 8 0 0 0 -8 8v112h-8a8 8 0 0 0 -8 8v16h-8v-416h192zm-168-464h144v32h-144zm-40 464h-104v-328h104z"/><path d="m232 400a8 8 0 0 0 -8 8v16a8 8 0 0 0 16 0v-16a8 8 0 0 0 -8-8z"/><path d="m280 400a8 8 0 0 0 -8 8v16a8 8 0 0 0 16 0v-16a8 8 0 0 0 -8-8z"/><path d="m320 256h-128a8 8 0 0 0 -8 8v64a8 8 0 0 0 8 8h128a8 8 0 0 0 8-8v-64a8 8 0 0 0 -8-8zm-8 64h-112v-8h112zm0-24h-112v-24h112z"/><path d="m320 168h-128a8 8 0 0 0 -8 8v64a8 8 0 0 0 8 8h128a8 8 0 0 0 8-8v-64a8 8 0 0 0 -8-8zm-8 64h-112v-8h112zm0-24h-112v-24h112z"/><path d="m320 80h-128a8 8 0 0 0 -8 8v64a8 8 0 0 0 8 8h128a8 8 0 0 0 8-8v-64a8 8 0 0 0 -8-8zm-8 64h-112v-8h112zm0-24h-112v-24h112z"/><path d="m128 168h-72a8 8 0 0 0 -8 8v64a8 8 0 0 0 8 8h72a8 8 0 0 0 8-8v-64a8 8 0 0 0 -8-8zm-8 64h-56v-8h56zm0-24h-56v-24h56z"/><path d="m128 256h-72a8 8 0 0 0 -8 8v64a8 8 0 0 0 8 8h72a8 8 0 0 0 8-8v-64a8 8 0 0 0 -8-8zm-8 64h-56v-8h56zm0-24h-56v-24h56z"/><path d="m128 344h-72a8 8 0 0 0 -8 8v64a8 8 0 0 0 8 8h72a8 8 0 0 0 8-8v-64a8 8 0 0 0 -8-8zm-8 64h-56v-8h56zm0-24h-56v-24h56z"/><path d="m456 168h-72a8 8 0 0 0 -8 8v64a8 8 0 0 0 8 8h72a8 8 0 0 0 8-8v-64a8 8 0 0 0 -8-8zm-8 64h-56v-8h56zm0-24h-56v-24h56z"/><path d="m456 256h-72a8 8 0 0 0 -8 8v64a8 8 0 0 0 8 8h72a8 8 0 0 0 8-8v-64a8 8 0 0 0 -8-8zm-8 64h-56v-8h56zm0-24h-56v-24h56z"/><path d="m456 344h-72a8 8 0 0 0 -8 8v64a8 8 0 0 0 8 8h72a8 8 0 0 0 8-8v-64a8 8 0 0 0 -8-8zm-8 64h-56v-8h56zm0-24h-56v-24h56z"/></g></g></svg>