<svg id="Layer_1" height="512" viewBox="0 0 512 512" width="512" xmlns="http://www.w3.org/2000/svg" data-name="Layer 1"><path d="m199.51 297.14h-128.56a11.3 11.3 0 0 1 -11.3-11.3v-26.67a22.6 22.6 0 0 1 18.17-22.16l121.69-24.34v-140.17a56.49 56.49 0 1 1 112.98 0v140.17l121.69 24.34a22.6 22.6 0 0 1 18.17 22.17v26.66a11.3 11.3 0 0 1 -11.3 11.3h-128.56v85.24l52.98 91.49a12.963 12.963 0 0 1 -9.17 22.13l-100.3-36.15-100 36.15a12.965 12.965 0 0 1 -9.17-22.13l52.68-91.49z" fill="#e5f5fd"/><path d="m89.65 295.84v-26.67a22.6 22.6 0 0 1 18.17-22.16l100.331-20.068a26.571 26.571 0 0 0 21.359-26.054v-118.388a56.5 56.5 0 0 1 56.49-56.5c.72 0 1.433.028 2.146.054a56.2 56.2 0 0 0 -31.98-10.054c-31.166-.09-56.656 26.22-56.656 57.384v139.286l-121.69 24.34a22.6 22.6 0 0 0 -18.17 22.16v26.67a11.3 11.3 0 0 0 11.3 11.3h18.78a11.385 11.385 0 0 1 -.08-1.3z" fill="#b9c8db"/><path d="m176.83 483.87 52.68-91.49v-105.433a25.807 25.807 0 0 0 -25.81-25.807h-4.19v121.24l-52.68 91.49a12.965 12.965 0 0 0 9.17 22.13l17.437-6.3a12.887 12.887 0 0 1 3.393-5.83z" fill="#b9c8db"/><path d="m286 469.85-1.125.407 71.425 25.743a13.76 13.76 0 0 0 1.883-.134z" fill="#e5f5fd"/><g fill="#284268"><path d="m435.356 231.121-116.856-23.373v-135.248a62.5 62.5 0 0 0 -124.99 0v135.248l-116.871 23.374a28.677 28.677 0 0 0 -22.993 28.045v26.672a17.318 17.318 0 0 0 17.3 17.3h122.56v77.634l-51.516 89.474a18.969 18.969 0 0 0 14.01 31.753 6.009 6.009 0 0 0 2.04-.357l97.96-35.421 98.259 35.423a6.012 6.012 0 0 0 2.041.355 18.969 18.969 0 0 0 14.009-31.759l-51.809-89.477v-77.626h122.56a17.318 17.318 0 0 0 17.3-17.3v-26.665a28.684 28.684 0 0 0 -23.004-28.052zm11 54.718a5.3 5.3 0 0 1 -5.3 5.3h-122.556v-27.9a6 6 0 0 0 -12 0v119.136a6 6 0 0 0 .807 3.007l53.925 92.723a6.978 6.978 0 0 1 -4.022 11.845l-99.175-35.75a5.993 5.993 0 0 0 -4.075 0l-98.866 35.75a6.977 6.977 0 0 1 -4.019-11.845l53.63-92.735a6.011 6.011 0 0 0 .8-3v-119.128a6 6 0 0 0 -12 0v27.9h-122.56a5.3 5.3 0 0 1 -5.3-5.3v-26.675a16.645 16.645 0 0 1 13.346-16.278l121.69-24.338a6 6 0 0 0 4.823-5.884v-140.167a50.5 50.5 0 0 1 100.99 0v140.167a6 6 0 0 0 4.823 5.884l121.683 24.337a16.652 16.652 0 0 1 13.352 16.285z"/><path d="m240.35 114.482a9.39 9.39 0 1 0 9.389 9.39 9.4 9.4 0 0 0 -9.389-9.39z"/><path d="m240.35 148.378a9.39 9.39 0 1 0 9.389 9.39 9.4 9.4 0 0 0 -9.389-9.39z"/><path d="m240.35 182.276a9.39 9.39 0 1 0 9.389 9.389 9.4 9.4 0 0 0 -9.389-9.389z"/><path d="m240.35 216.172a9.39 9.39 0 1 0 9.389 9.39 9.4 9.4 0 0 0 -9.389-9.39z"/><path d="m240.35 250.07a9.39 9.39 0 1 0 9.389 9.389 9.4 9.4 0 0 0 -9.389-9.389z"/><path d="m240.35 283.966a9.39 9.39 0 1 0 9.389 9.39 9.4 9.4 0 0 0 -9.389-9.39z"/><path d="m240.35 317.864a9.39 9.39 0 1 0 9.389 9.389 9.4 9.4 0 0 0 -9.389-9.389z"/><path d="m240.35 351.76a9.39 9.39 0 1 0 9.389 9.39 9.4 9.4 0 0 0 -9.389-9.39z"/></g></svg>